<svg width="30" height="30" viewBox="0 0 30 30" xmlns="http://www.w3.org/2000/svg">
<path d="M14.2302 5.81569C13.3674 7.71373 13.1164 10.2235 13.6027 12.1373C14.5125 15.7137 17.4459 18.5216 20.9753 19.1961C21.6341 19.3216 22.5596 19.4314 23.0302 19.4314H23.8929L23.6106 19.9176C23.4537 20.1843 22.8262 20.8745 22.2302 21.4549C20.4106 23.2118 18.1988 24.1373 15.7674 24.1373C13.9949 24.1373 12.8498 23.8863 11.4066 23.1961C9.83801 22.4431 8.52036 21.2667 7.53213 19.7608C5.68115 16.9216 5.49291 13.251 7.04585 10.1451C7.78311 8.68628 9.57135 6.85098 11.0145 6.09804C12.0341 5.56471 13.6184 5.03137 14.2615 5.01569L14.6066 5L14.2302 5.81569Z"/>
</svg>
