<svg width="30" height="30" viewBox="0 0 30 30" xmlns="http://www.w3.org/2000/svg">
<path d="M14.1513 0.437221C13.8488 0.823992 13.7983 1.12668 13.7983 2.43834C13.7983 4.30493 14.1009 4.87668 15.0588 4.87668C16.0168 4.87668 16.3193 4.30493 16.3193 2.43834C16.3193 0.57175 16.0168 8.27014e-07 15.0588 8.27014e-07C14.6555 8.27014e-07 14.4034 0.117714 14.1513 0.437221Z" />
<path d="M4.38657 4.3722C3.7143 5.04485 3.93279 5.65023 5.27732 7.01233C6.65548 8.39126 7.12606 8.5426 7.83195 7.81951C8.55464 7.11323 8.40337 6.64238 7.02522 5.26345C5.66388 3.91816 5.05884 3.69955 4.38657 4.3722Z" />
<path d="M23.0756 5.26345C21.7479 6.60874 21.5294 7.23094 22.2017 7.90359C22.8403 8.5426 23.3277 8.35762 24.7563 6.92825C26.1849 5.48206 26.3193 5.11211 25.6471 4.45628C24.9412 3.73318 24.4538 3.88453 23.0756 5.26345Z" />
<path d="M13.4622 8.99664C10.9412 9.71973 9.17648 11.7545 8.82354 14.4283C8.50421 16.833 10.084 19.5572 12.4202 20.6502C13.2437 21.037 13.5966 21.1043 14.9748 21.1043C16.3698 21.1043 16.7059 21.037 17.5798 20.6334C18.8908 20.028 20.0336 18.8845 20.6387 17.5897C21.042 16.6984 21.1093 16.3621 21.1093 14.9664C21.1093 13.5874 21.042 13.2343 20.6723 12.4439C20 11.0482 19.1597 10.1738 17.7815 9.50112C16.3025 8.77803 14.874 8.60987 13.4622 8.99664Z" />
<path d="M0.453781 14.1424C-0.15126 14.6132 -0.15126 15.4877 0.453781 15.9585C0.840336 16.2612 1.14286 16.3117 2.45378 16.3117C4.31933 16.3117 4.89076 16.009 4.89076 15.0504C4.89076 14.0919 4.31933 13.7892 2.45378 13.7892C1.14286 13.7892 0.840336 13.8397 0.453781 14.1424Z" />
<path d="M25.7479 13.991C24.9076 14.4451 24.958 15.8072 25.8152 16.1435C26.0673 16.2444 26.9244 16.3117 27.7479 16.3117C29.5294 16.3117 30 16.0594 30 15.0673C30 14.0751 29.6639 13.8733 27.7815 13.8229C26.6891 13.7892 26.0168 13.8565 25.7479 13.991Z" />
<path d="M6.73949 21.8274C6.60504 21.861 5.93277 22.4327 5.27731 23.0886C4.2689 24.0807 4.05042 24.3834 4.05042 24.8206C4.05042 25.4092 4.42016 25.8128 5.09243 25.9809C5.5126 26.0818 5.69747 25.9641 6.82352 24.8711C8.15125 23.5931 8.42016 23.1054 8.11764 22.4664C7.93277 22.046 7.15966 21.6928 6.73949 21.8274Z" />
<path d="M22.7059 21.8274C22.1849 21.9955 21.8655 22.4327 21.8655 22.9877C21.8655 23.4753 22.0504 23.7612 22.9244 24.6693C24.0504 25.8632 24.521 26.1155 25.1597 25.9641C25.6639 25.8296 26.1176 25.0392 25.9832 24.5011C25.8487 24.0135 23.7647 21.9283 23.2941 21.8274C23.1092 21.7769 22.8403 21.7769 22.7059 21.8274Z" />
<path d="M14.2857 25.3756C13.916 25.6783 13.8823 25.8464 13.8319 27.4439C13.7815 28.9742 13.8151 29.2433 14.1008 29.5964C14.3361 29.8823 14.5882 30 15.042 30C16.084 30 16.2353 29.6973 16.2353 27.5617C16.2353 25.8128 16.2185 25.6783 15.8319 25.3756C15.3277 24.972 14.7899 24.972 14.2857 25.3756Z" />
</svg>
